<mxfile host="app.diagrams.net" agent="Mozilla/5.0 (Macintosh; Intel Mac OS X 10_15_7) AppleWebKit/605.1.15 (KHTML, like Gecko) Version/17.6 Safari/605.1.15" version="24.8.3">
  <diagram name="Page-1" id="2t1w9EjYc3GMAiw-3vW3">
    <mxGraphModel dx="954" dy="592" grid="1" gridSize="10" guides="1" tooltips="1" connect="1" arrows="1" fold="1" page="1" pageScale="1" pageWidth="827" pageHeight="1169" math="0" shadow="0">
      <root>
        <mxCell id="0" />
        <mxCell id="1" parent="0" />
        <mxCell id="fktOU1IL38EF21-Itv1q-1" value="Main" style="ellipse;whiteSpace=wrap;html=1;" vertex="1" parent="1">
          <mxGeometry x="70" y="70" width="120" height="80" as="geometry" />
        </mxCell>
        <mxCell id="fktOU1IL38EF21-Itv1q-41" value="" style="edgeStyle=orthogonalEdgeStyle;rounded=0;orthogonalLoop=1;jettySize=auto;html=1;" edge="1" parent="1" source="fktOU1IL38EF21-Itv1q-24" target="fktOU1IL38EF21-Itv1q-40">
          <mxGeometry relative="1" as="geometry" />
        </mxCell>
        <mxCell id="fktOU1IL38EF21-Itv1q-24" value="foreach (User user in userList)" style="shape=hexagon;perimeter=hexagonPerimeter2;whiteSpace=wrap;html=1;fixedSize=1;fontSize=10;" vertex="1" parent="1">
          <mxGeometry x="60" y="370" width="120" height="80" as="geometry" />
        </mxCell>
        <mxCell id="fktOU1IL38EF21-Itv1q-43" value="" style="edgeStyle=orthogonalEdgeStyle;rounded=0;orthogonalLoop=1;jettySize=auto;html=1;" edge="1" parent="1" source="fktOU1IL38EF21-Itv1q-25" target="fktOU1IL38EF21-Itv1q-38">
          <mxGeometry relative="1" as="geometry" />
        </mxCell>
        <mxCell id="fktOU1IL38EF21-Itv1q-25" value="user.IsPremium" style="rhombus;whiteSpace=wrap;html=1;fontSize=10;" vertex="1" parent="1">
          <mxGeometry x="80" y="552" width="80" height="80" as="geometry" />
        </mxCell>
        <mxCell id="fktOU1IL38EF21-Itv1q-31" value="" style="endArrow=classic;html=1;rounded=0;exitX=0.5;exitY=1;exitDx=0;exitDy=0;entryX=0.5;entryY=0;entryDx=0;entryDy=0;" edge="1" parent="1" target="fktOU1IL38EF21-Itv1q-24">
          <mxGeometry width="50" height="50" relative="1" as="geometry">
            <mxPoint x="120" y="350" as="sourcePoint" />
            <mxPoint x="270" y="440" as="targetPoint" />
          </mxGeometry>
        </mxCell>
        <mxCell id="fktOU1IL38EF21-Itv1q-34" value="" style="endArrow=classic;html=1;rounded=0;exitX=0.5;exitY=1;exitDx=0;exitDy=0;entryX=0.5;entryY=0;entryDx=0;entryDy=0;" edge="1" parent="1" source="fktOU1IL38EF21-Itv1q-1">
          <mxGeometry width="50" height="50" relative="1" as="geometry">
            <mxPoint x="230" y="380" as="sourcePoint" />
            <mxPoint x="130" y="180" as="targetPoint" />
          </mxGeometry>
        </mxCell>
        <mxCell id="fktOU1IL38EF21-Itv1q-35" value="End" style="ellipse;whiteSpace=wrap;html=1;" vertex="1" parent="1">
          <mxGeometry x="60" y="820" width="120" height="80" as="geometry" />
        </mxCell>
        <mxCell id="fktOU1IL38EF21-Itv1q-37" value="GetUserList" style="shape=process;whiteSpace=wrap;html=1;backgroundOutline=1;" vertex="1" parent="1">
          <mxGeometry x="60" y="290" width="120" height="60" as="geometry" />
        </mxCell>
        <mxCell id="fktOU1IL38EF21-Itv1q-38" value="ShowAds" style="shape=process;whiteSpace=wrap;html=1;backgroundOutline=1;" vertex="1" parent="1">
          <mxGeometry x="60" y="664" width="120" height="60" as="geometry" />
        </mxCell>
        <mxCell id="fktOU1IL38EF21-Itv1q-42" value="" style="edgeStyle=orthogonalEdgeStyle;rounded=0;orthogonalLoop=1;jettySize=auto;html=1;" edge="1" parent="1" source="fktOU1IL38EF21-Itv1q-40" target="fktOU1IL38EF21-Itv1q-25">
          <mxGeometry relative="1" as="geometry" />
        </mxCell>
        <mxCell id="fktOU1IL38EF21-Itv1q-40" value="&quot;Hello, &quot; + user.Name" style="shape=parallelogram;perimeter=parallelogramPerimeter;whiteSpace=wrap;html=1;fixedSize=1;fontSize=10;" vertex="1" parent="1">
          <mxGeometry x="60" y="470" width="120" height="60" as="geometry" />
        </mxCell>
        <mxCell id="fktOU1IL38EF21-Itv1q-44" value="true" style="text;html=1;align=center;verticalAlign=middle;resizable=0;points=[];autosize=1;strokeColor=none;fillColor=none;" vertex="1" parent="1">
          <mxGeometry x="160" y="570" width="40" height="30" as="geometry" />
        </mxCell>
        <mxCell id="fktOU1IL38EF21-Itv1q-45" value="false" style="text;html=1;align=center;verticalAlign=middle;resizable=0;points=[];autosize=1;strokeColor=none;fillColor=none;" vertex="1" parent="1">
          <mxGeometry x="80" y="625" width="50" height="30" as="geometry" />
        </mxCell>
        <mxCell id="fktOU1IL38EF21-Itv1q-46" value="" style="endArrow=classic;html=1;rounded=0;exitX=0.5;exitY=1;exitDx=0;exitDy=0;entryX=0;entryY=0.5;entryDx=0;entryDy=0;" edge="1" parent="1" source="fktOU1IL38EF21-Itv1q-38" target="fktOU1IL38EF21-Itv1q-24">
          <mxGeometry width="50" height="50" relative="1" as="geometry">
            <mxPoint x="300" y="620" as="sourcePoint" />
            <mxPoint x="350" y="570" as="targetPoint" />
            <Array as="points">
              <mxPoint x="120" y="750" />
              <mxPoint x="30" y="750" />
              <mxPoint x="30" y="410" />
            </Array>
          </mxGeometry>
        </mxCell>
        <mxCell id="fktOU1IL38EF21-Itv1q-47" value="" style="endArrow=classic;html=1;rounded=0;exitX=1;exitY=0.5;exitDx=0;exitDy=0;" edge="1" parent="1" source="fktOU1IL38EF21-Itv1q-25">
          <mxGeometry width="50" height="50" relative="1" as="geometry">
            <mxPoint x="300" y="620" as="sourcePoint" />
            <mxPoint x="120" y="750" as="targetPoint" />
            <Array as="points">
              <mxPoint x="200" y="592" />
              <mxPoint x="200" y="750" />
            </Array>
          </mxGeometry>
        </mxCell>
        <mxCell id="fktOU1IL38EF21-Itv1q-48" value="" style="endArrow=classic;html=1;rounded=0;exitX=1;exitY=0.5;exitDx=0;exitDy=0;entryX=0.5;entryY=0;entryDx=0;entryDy=0;" edge="1" parent="1" source="fktOU1IL38EF21-Itv1q-24" target="fktOU1IL38EF21-Itv1q-35">
          <mxGeometry width="50" height="50" relative="1" as="geometry">
            <mxPoint x="300" y="620" as="sourcePoint" />
            <mxPoint x="120" y="790" as="targetPoint" />
            <Array as="points">
              <mxPoint x="230" y="410" />
              <mxPoint x="230" y="790" />
              <mxPoint x="120" y="790" />
            </Array>
          </mxGeometry>
        </mxCell>
        <mxCell id="fktOU1IL38EF21-Itv1q-61" value="" style="edgeStyle=orthogonalEdgeStyle;rounded=0;orthogonalLoop=1;jettySize=auto;html=1;" edge="1" parent="1" source="fktOU1IL38EF21-Itv1q-50" target="fktOU1IL38EF21-Itv1q-51">
          <mxGeometry relative="1" as="geometry" />
        </mxCell>
        <mxCell id="fktOU1IL38EF21-Itv1q-50" value="ShowAds()" style="ellipse;whiteSpace=wrap;html=1;" vertex="1" parent="1">
          <mxGeometry x="660" y="60" width="120" height="80" as="geometry" />
        </mxCell>
        <mxCell id="fktOU1IL38EF21-Itv1q-63" value="" style="edgeStyle=orthogonalEdgeStyle;rounded=0;orthogonalLoop=1;jettySize=auto;html=1;" edge="1" parent="1" source="fktOU1IL38EF21-Itv1q-51" target="fktOU1IL38EF21-Itv1q-52">
          <mxGeometry relative="1" as="geometry" />
        </mxCell>
        <mxCell id="fktOU1IL38EF21-Itv1q-51" value="&lt;p&gt;Посетите наш новый сайт с бесплатными играми free.games.for.a.fool.com&lt;/p&gt;" style="shape=parallelogram;perimeter=parallelogramPerimeter;whiteSpace=wrap;html=1;fixedSize=1;" vertex="1" parent="1">
          <mxGeometry x="620" y="182" width="200" height="60" as="geometry" />
        </mxCell>
        <mxCell id="fktOU1IL38EF21-Itv1q-64" value="" style="edgeStyle=orthogonalEdgeStyle;rounded=0;orthogonalLoop=1;jettySize=auto;html=1;" edge="1" parent="1" source="fktOU1IL38EF21-Itv1q-52" target="fktOU1IL38EF21-Itv1q-53">
          <mxGeometry relative="1" as="geometry" />
        </mxCell>
        <mxCell id="fktOU1IL38EF21-Itv1q-52" value="&lt;p&gt;Thread&lt;span style=&quot;box-sizing: border-box; font-style: inherit; font-variant-caps: inherit; font-stretch: inherit; font-size: inherit; line-height: 1.4em; font-family: inherit; font-size-adjust: inherit; font-kerning: inherit; font-variant-alternates: inherit; font-variant-ligatures: inherit; font-variant-numeric: inherit; font-variant-east-asian: inherit; font-variant-position: inherit; font-feature-settings: inherit; font-optical-sizing: inherit; font-variation-settings: inherit;&quot; class=&quot;hljs-selector-class&quot;&gt;.Sleep&lt;/span&gt;(&lt;span style=&quot;box-sizing: border-box; font-style: inherit; font-variant-caps: inherit; font-stretch: inherit; font-size: inherit; line-height: 1.4em; font-family: inherit; font-size-adjust: inherit; font-kerning: inherit; font-variant-alternates: inherit; font-variant-ligatures: inherit; font-variant-numeric: inherit; font-variant-east-asian: inherit; font-variant-position: inherit; font-feature-settings: inherit; font-optical-sizing: inherit; font-variation-settings: inherit;&quot; class=&quot;hljs-number&quot;&gt;1000&lt;/span&gt;)&lt;/p&gt;" style="rounded=0;whiteSpace=wrap;html=1;" vertex="1" parent="1">
          <mxGeometry x="660" y="280" width="120" height="60" as="geometry" />
        </mxCell>
        <mxCell id="fktOU1IL38EF21-Itv1q-65" value="" style="edgeStyle=orthogonalEdgeStyle;rounded=0;orthogonalLoop=1;jettySize=auto;html=1;" edge="1" parent="1" source="fktOU1IL38EF21-Itv1q-53" target="fktOU1IL38EF21-Itv1q-54">
          <mxGeometry relative="1" as="geometry" />
        </mxCell>
        <mxCell id="fktOU1IL38EF21-Itv1q-53" value="&lt;p style=&quot;font-size: 11px;&quot;&gt;Купите подписку на МыКомбо и слушайте музыку везде и всегда.&lt;/p&gt;" style="shape=parallelogram;perimeter=parallelogramPerimeter;whiteSpace=wrap;html=1;fixedSize=1;" vertex="1" parent="1">
          <mxGeometry x="620" y="372" width="200" height="60" as="geometry" />
        </mxCell>
        <mxCell id="fktOU1IL38EF21-Itv1q-66" value="" style="edgeStyle=orthogonalEdgeStyle;rounded=0;orthogonalLoop=1;jettySize=auto;html=1;" edge="1" parent="1" source="fktOU1IL38EF21-Itv1q-54" target="fktOU1IL38EF21-Itv1q-55">
          <mxGeometry relative="1" as="geometry" />
        </mxCell>
        <mxCell id="fktOU1IL38EF21-Itv1q-54" value="&lt;p&gt;Thread&lt;span style=&quot;box-sizing: border-box; font-style: inherit; font-variant-caps: inherit; font-stretch: inherit; font-size: inherit; line-height: 1.4em; font-family: inherit; font-size-adjust: inherit; font-kerning: inherit; font-variant-alternates: inherit; font-variant-ligatures: inherit; font-variant-numeric: inherit; font-variant-east-asian: inherit; font-variant-position: inherit; font-feature-settings: inherit; font-optical-sizing: inherit; font-variation-settings: inherit;&quot; class=&quot;hljs-selector-class&quot;&gt;.Sleep&lt;/span&gt;(2&lt;span style=&quot;box-sizing: border-box; font-style: inherit; font-variant-caps: inherit; font-stretch: inherit; font-size: inherit; line-height: 1.4em; font-family: inherit; font-size-adjust: inherit; font-kerning: inherit; font-variant-alternates: inherit; font-variant-ligatures: inherit; font-variant-numeric: inherit; font-variant-east-asian: inherit; font-variant-position: inherit; font-feature-settings: inherit; font-optical-sizing: inherit; font-variation-settings: inherit;&quot; class=&quot;hljs-number&quot;&gt;000&lt;/span&gt;)&lt;/p&gt;" style="rounded=0;whiteSpace=wrap;html=1;" vertex="1" parent="1">
          <mxGeometry x="660" y="460" width="120" height="60" as="geometry" />
        </mxCell>
        <mxCell id="fktOU1IL38EF21-Itv1q-67" value="" style="edgeStyle=orthogonalEdgeStyle;rounded=0;orthogonalLoop=1;jettySize=auto;html=1;" edge="1" parent="1" source="fktOU1IL38EF21-Itv1q-55" target="fktOU1IL38EF21-Itv1q-56">
          <mxGeometry relative="1" as="geometry" />
        </mxCell>
        <mxCell id="fktOU1IL38EF21-Itv1q-55" value="&lt;p style=&quot;font-size: 10px;&quot;&gt;Оформите премиум-подписку на наш сервис, чтобы не видеть рекламу.&lt;/p&gt;" style="shape=parallelogram;perimeter=parallelogramPerimeter;whiteSpace=wrap;html=1;fixedSize=1;fontSize=10;" vertex="1" parent="1">
          <mxGeometry x="620" y="545" width="200" height="60" as="geometry" />
        </mxCell>
        <mxCell id="fktOU1IL38EF21-Itv1q-68" value="" style="edgeStyle=orthogonalEdgeStyle;rounded=0;orthogonalLoop=1;jettySize=auto;html=1;" edge="1" parent="1" source="fktOU1IL38EF21-Itv1q-56" target="fktOU1IL38EF21-Itv1q-57">
          <mxGeometry relative="1" as="geometry" />
        </mxCell>
        <mxCell id="fktOU1IL38EF21-Itv1q-56" value="&lt;p&gt;Thread&lt;span style=&quot;box-sizing: border-box; font-style: inherit; font-variant-caps: inherit; font-stretch: inherit; font-size: inherit; line-height: 1.4em; font-family: inherit; font-size-adjust: inherit; font-kerning: inherit; font-variant-alternates: inherit; font-variant-ligatures: inherit; font-variant-numeric: inherit; font-variant-east-asian: inherit; font-variant-position: inherit; font-feature-settings: inherit; font-optical-sizing: inherit; font-variation-settings: inherit;&quot; class=&quot;hljs-selector-class&quot;&gt;.Sleep&lt;/span&gt;(3&lt;span style=&quot;box-sizing: border-box; font-style: inherit; font-variant-caps: inherit; font-stretch: inherit; font-size: inherit; line-height: 1.4em; font-family: inherit; font-size-adjust: inherit; font-kerning: inherit; font-variant-alternates: inherit; font-variant-ligatures: inherit; font-variant-numeric: inherit; font-variant-east-asian: inherit; font-variant-position: inherit; font-feature-settings: inherit; font-optical-sizing: inherit; font-variation-settings: inherit;&quot; class=&quot;hljs-number&quot;&gt;000&lt;/span&gt;)&lt;/p&gt;" style="rounded=0;whiteSpace=wrap;html=1;" vertex="1" parent="1">
          <mxGeometry x="660" y="640" width="120" height="60" as="geometry" />
        </mxCell>
        <mxCell id="fktOU1IL38EF21-Itv1q-57" value="End" style="ellipse;whiteSpace=wrap;html=1;" vertex="1" parent="1">
          <mxGeometry x="660" y="730" width="120" height="80" as="geometry" />
        </mxCell>
        <mxCell id="fktOU1IL38EF21-Itv1q-69" value="GetUserList()" style="ellipse;whiteSpace=wrap;html=1;" vertex="1" parent="1">
          <mxGeometry x="300" y="70" width="120" height="80" as="geometry" />
        </mxCell>
        <mxCell id="fktOU1IL38EF21-Itv1q-70" value="" style="edgeStyle=orthogonalEdgeStyle;rounded=0;orthogonalLoop=1;jettySize=auto;html=1;" edge="1" parent="1" source="fktOU1IL38EF21-Itv1q-71" target="fktOU1IL38EF21-Itv1q-80">
          <mxGeometry relative="1" as="geometry" />
        </mxCell>
        <mxCell id="fktOU1IL38EF21-Itv1q-71" value="for (int i = 0; i &amp;lt; userCount; i++)" style="shape=hexagon;perimeter=hexagonPerimeter2;whiteSpace=wrap;html=1;fixedSize=1;fontSize=10;" vertex="1" parent="1">
          <mxGeometry x="300" y="260" width="120" height="80" as="geometry" />
        </mxCell>
        <mxCell id="fktOU1IL38EF21-Itv1q-74" value="" style="endArrow=classic;html=1;rounded=0;exitX=0.5;exitY=1;exitDx=0;exitDy=0;entryX=0.5;entryY=0;entryDx=0;entryDy=0;" edge="1" parent="1" target="fktOU1IL38EF21-Itv1q-71">
          <mxGeometry width="50" height="50" relative="1" as="geometry">
            <mxPoint x="360" y="240" as="sourcePoint" />
            <mxPoint x="510" y="330" as="targetPoint" />
          </mxGeometry>
        </mxCell>
        <mxCell id="fktOU1IL38EF21-Itv1q-75" value="" style="endArrow=classic;html=1;rounded=0;exitX=0.5;exitY=1;exitDx=0;exitDy=0;entryX=0.5;entryY=0;entryDx=0;entryDy=0;" edge="1" parent="1" source="fktOU1IL38EF21-Itv1q-69">
          <mxGeometry width="50" height="50" relative="1" as="geometry">
            <mxPoint x="460" y="380" as="sourcePoint" />
            <mxPoint x="360" y="180" as="targetPoint" />
          </mxGeometry>
        </mxCell>
        <mxCell id="fktOU1IL38EF21-Itv1q-76" value="End" style="ellipse;whiteSpace=wrap;html=1;" vertex="1" parent="1">
          <mxGeometry x="300" y="810" width="120" height="80" as="geometry" />
        </mxCell>
        <mxCell id="fktOU1IL38EF21-Itv1q-92" value="" style="edgeStyle=orthogonalEdgeStyle;rounded=0;orthogonalLoop=1;jettySize=auto;html=1;" edge="1" parent="1" source="fktOU1IL38EF21-Itv1q-80" target="fktOU1IL38EF21-Itv1q-88">
          <mxGeometry relative="1" as="geometry" />
        </mxCell>
        <mxCell id="fktOU1IL38EF21-Itv1q-80" value="user.Login" style="shape=parallelogram;perimeter=parallelogramPerimeter;whiteSpace=wrap;html=1;fixedSize=1;fontSize=10;" vertex="1" parent="1">
          <mxGeometry x="300" y="380" width="120" height="40" as="geometry" />
        </mxCell>
        <mxCell id="fktOU1IL38EF21-Itv1q-83" value="" style="endArrow=classic;html=1;rounded=0;exitX=0.5;exitY=1;exitDx=0;exitDy=0;entryX=0;entryY=0.5;entryDx=0;entryDy=0;" edge="1" parent="1" source="fktOU1IL38EF21-Itv1q-89" target="fktOU1IL38EF21-Itv1q-71">
          <mxGeometry width="50" height="50" relative="1" as="geometry">
            <mxPoint x="360" y="614" as="sourcePoint" />
            <mxPoint x="590" y="460" as="targetPoint" />
            <Array as="points">
              <mxPoint x="360" y="730" />
              <mxPoint x="270" y="730" />
              <mxPoint x="270" y="300" />
            </Array>
          </mxGeometry>
        </mxCell>
        <mxCell id="fktOU1IL38EF21-Itv1q-85" value="" style="endArrow=classic;html=1;rounded=0;exitX=1;exitY=0.5;exitDx=0;exitDy=0;entryX=0.5;entryY=0;entryDx=0;entryDy=0;" edge="1" parent="1" source="fktOU1IL38EF21-Itv1q-71" target="fktOU1IL38EF21-Itv1q-76">
          <mxGeometry width="50" height="50" relative="1" as="geometry">
            <mxPoint x="540" y="510" as="sourcePoint" />
            <mxPoint x="360" y="680" as="targetPoint" />
            <Array as="points">
              <mxPoint x="470" y="300" />
              <mxPoint x="470" y="760" />
              <mxPoint x="360" y="760" />
            </Array>
          </mxGeometry>
        </mxCell>
        <mxCell id="fktOU1IL38EF21-Itv1q-86" value="userCount" style="shape=parallelogram;perimeter=parallelogramPerimeter;whiteSpace=wrap;html=1;fixedSize=1;" vertex="1" parent="1">
          <mxGeometry x="300" y="180" width="120" height="60" as="geometry" />
        </mxCell>
        <mxCell id="fktOU1IL38EF21-Itv1q-87" value="&lt;span style=&quot;font-size: 10px;&quot;&gt;userList.Add(new User(login, &amp;nbsp;name, status))&lt;/span&gt;" style="rounded=0;whiteSpace=wrap;html=1;" vertex="1" parent="1">
          <mxGeometry x="300" y="640" width="120" height="60" as="geometry" />
        </mxCell>
        <mxCell id="fktOU1IL38EF21-Itv1q-93" value="" style="edgeStyle=orthogonalEdgeStyle;rounded=0;orthogonalLoop=1;jettySize=auto;html=1;" edge="1" parent="1" source="fktOU1IL38EF21-Itv1q-88" target="fktOU1IL38EF21-Itv1q-89">
          <mxGeometry relative="1" as="geometry" />
        </mxCell>
        <mxCell id="fktOU1IL38EF21-Itv1q-88" value="user.Name" style="shape=parallelogram;perimeter=parallelogramPerimeter;whiteSpace=wrap;html=1;fixedSize=1;fontSize=10;" vertex="1" parent="1">
          <mxGeometry x="300" y="455" width="120" height="40" as="geometry" />
        </mxCell>
        <mxCell id="fktOU1IL38EF21-Itv1q-89" value="user.IsPremium" style="shape=parallelogram;perimeter=parallelogramPerimeter;whiteSpace=wrap;html=1;fixedSize=1;fontSize=10;" vertex="1" parent="1">
          <mxGeometry x="300" y="545" width="120" height="40" as="geometry" />
        </mxCell>
        <mxCell id="fktOU1IL38EF21-Itv1q-95" value="" style="group" vertex="1" connectable="0" parent="1">
          <mxGeometry x="470" y="70" width="140" height="140" as="geometry" />
        </mxCell>
        <mxCell id="fktOU1IL38EF21-Itv1q-16" value="User" style="swimlane;fontStyle=0;childLayout=stackLayout;horizontal=1;startSize=26;fillColor=none;horizontalStack=0;resizeParent=1;resizeParentMax=0;resizeLast=0;collapsible=1;marginBottom=0;html=1;" vertex="1" parent="fktOU1IL38EF21-Itv1q-95">
          <mxGeometry width="140" height="104" as="geometry" />
        </mxCell>
        <mxCell id="fktOU1IL38EF21-Itv1q-17" value="Login : string" style="text;strokeColor=none;fillColor=none;align=left;verticalAlign=top;spacingLeft=4;spacingRight=4;overflow=hidden;rotatable=0;points=[[0,0.5],[1,0.5]];portConstraint=eastwest;whiteSpace=wrap;html=1;" vertex="1" parent="fktOU1IL38EF21-Itv1q-16">
          <mxGeometry y="26" width="140" height="26" as="geometry" />
        </mxCell>
        <mxCell id="fktOU1IL38EF21-Itv1q-18" value="Name : string" style="text;strokeColor=none;fillColor=none;align=left;verticalAlign=top;spacingLeft=4;spacingRight=4;overflow=hidden;rotatable=0;points=[[0,0.5],[1,0.5]];portConstraint=eastwest;whiteSpace=wrap;html=1;" vertex="1" parent="fktOU1IL38EF21-Itv1q-16">
          <mxGeometry y="52" width="140" height="26" as="geometry" />
        </mxCell>
        <mxCell id="fktOU1IL38EF21-Itv1q-19" value="IsPremium : bool" style="text;strokeColor=none;fillColor=none;align=left;verticalAlign=top;spacingLeft=4;spacingRight=4;overflow=hidden;rotatable=0;points=[[0,0.5],[1,0.5]];portConstraint=eastwest;whiteSpace=wrap;html=1;" vertex="1" parent="fktOU1IL38EF21-Itv1q-16">
          <mxGeometry y="78" width="140" height="26" as="geometry" />
        </mxCell>
        <mxCell id="fktOU1IL38EF21-Itv1q-94" value="User(string login, string name, string status)" style="rounded=0;whiteSpace=wrap;html=1;" vertex="1" parent="fktOU1IL38EF21-Itv1q-95">
          <mxGeometry y="104" width="140" height="36" as="geometry" />
        </mxCell>
        <mxCell id="fktOU1IL38EF21-Itv1q-96" value="List()" style="rounded=0;whiteSpace=wrap;html=1;" vertex="1" parent="1">
          <mxGeometry x="70" y="182" width="120" height="60" as="geometry" />
        </mxCell>
      </root>
    </mxGraphModel>
  </diagram>
</mxfile>
